<svg width="200" height="200" viewBox="0 0 200 200" fill="none" xmlns="http://www.w3.org/2000/svg">
<g clip-path="url(#clip0_401_198)">
<path d="M125.932 11.6643L128.745 3.166L129.774 3.50668L128.521 7.29108L133.053 8.79116L134.305 5.00675L135.334 5.34743L132.521 13.8457L131.492 13.5051L132.75 9.70406L128.219 8.20399L126.961 12.005L125.932 11.6643Z" fill="black"/>
<path d="M142.666 18.5007L141.675 17.9458L148.914 11.7384L149.891 12.2847L148.388 21.7019L147.397 21.147L148.741 13.2645L148.68 13.2304L142.666 18.5007ZM144.74 15.6539L148.738 17.8905L148.268 18.7297L144.271 16.4931L144.74 15.6539Z" fill="black"/>
<path d="M167.692 25.1966L161.922 32.0406L161.12 31.3644L161.921 22.8464L161.854 22.7901L157.324 28.1636L156.495 27.4649L162.265 20.6209L163.067 21.2971L162.268 29.8397L162.335 29.8961L166.877 24.5091L167.692 25.1966Z" fill="black"/>
<path d="M170.565 41.3373L168.828 39.1891L175.789 33.5609L177.603 35.8042C178.149 36.4795 178.477 37.17 178.587 37.8758C178.699 38.5797 178.599 39.2695 178.287 39.9451C177.977 40.6189 177.462 41.2471 176.742 41.8297C176.016 42.4159 175.288 42.7915 174.555 42.9564C173.825 43.1195 173.12 43.0676 172.44 42.8008C171.762 42.5321 171.137 42.0443 170.565 41.3373ZM170.258 39.4275L171.269 40.6783C171.734 41.2539 172.231 41.6411 172.759 41.84C173.287 42.0389 173.831 42.0654 174.392 41.9196C174.952 41.7738 175.515 41.4719 176.082 41.0139C176.644 40.5595 177.054 40.0766 177.311 39.5651C177.57 39.0518 177.661 38.5248 177.584 37.9841C177.509 37.4415 177.251 36.8983 176.812 36.3545L175.723 35.0084L170.258 39.4275Z" fill="black"/>
<path d="M194.136 74.0299L193.817 72.994C194.096 72.8409 194.325 72.6529 194.503 72.4302C194.682 72.2103 194.815 71.9681 194.901 71.7037C194.991 71.4412 195.034 71.167 195.032 70.8812C195.029 70.5954 194.984 70.3105 194.896 70.0265C194.736 69.5085 194.461 69.0797 194.069 68.7399C193.679 68.4029 193.191 68.1891 192.605 68.0984C192.019 68.0105 191.357 68.0807 190.616 68.3092C189.875 68.5376 189.288 68.8529 188.854 69.255C188.421 69.66 188.137 70.1117 188.005 70.6101C187.872 71.1113 187.886 71.6209 188.046 72.1388C188.134 72.4229 188.257 72.6837 188.415 72.9214C188.574 73.1592 188.763 73.3616 188.982 73.5288C189.205 73.6979 189.453 73.8229 189.725 73.9037C190 73.9864 190.295 74.0129 190.609 73.9832L190.928 75.0191C190.467 75.0759 190.032 75.0545 189.623 74.9549C189.214 74.8554 188.842 74.6898 188.505 74.4582C188.171 74.2257 187.883 73.938 187.64 73.5952C187.398 73.2551 187.21 72.8693 187.077 72.4376C186.852 71.7081 186.83 71.0043 187.011 70.3263C187.193 69.6483 187.562 69.0451 188.118 68.5167C188.675 67.9882 189.404 67.5849 190.307 67.3067C191.209 67.0285 192.039 66.951 192.797 67.0741C193.554 67.1973 194.199 67.4879 194.73 67.9461C195.262 68.4042 195.64 68.9981 195.865 69.7277C195.998 70.1593 196.061 70.5838 196.052 71.0011C196.044 71.4213 195.967 71.8218 195.819 72.2029C195.674 72.583 195.46 72.9294 195.179 73.2419C194.9 73.5536 194.552 73.8162 194.136 74.0299Z" fill="black"/>
<path d="M190.328 86.3186L199.227 85.3473L199.556 88.3542C199.631 89.0495 199.575 89.6331 199.386 90.1051C199.2 90.5769 198.913 90.9424 198.525 91.2016C198.137 91.4609 197.681 91.6191 197.157 91.6763C196.632 91.7336 196.156 91.6771 195.727 91.507C195.298 91.3369 194.943 91.0429 194.663 90.625C194.386 90.2068 194.21 89.6529 194.135 88.9635L193.869 86.5301L194.842 86.4239L195.104 88.8225C195.156 89.2976 195.267 89.6723 195.438 89.9468C195.609 90.2243 195.829 90.4142 196.098 90.5168C196.37 90.6219 196.685 90.655 197.041 90.6161C197.397 90.5772 197.702 90.4766 197.954 90.3143C198.205 90.1519 198.388 89.9166 198.501 89.6082C198.617 89.2995 198.648 88.9047 198.596 88.4238L198.389 86.5293L190.446 87.3962L190.328 86.3186ZM194.783 90.0711L191.025 92.6974L190.888 91.4459L194.65 88.8544L194.783 90.0711Z" fill="black"/>
<path d="M191.078 103.943L200 104.674L199.562 110.024L198.604 109.945L198.953 105.676L195.938 105.429L195.622 109.298L194.663 109.219L194.98 105.351L190.99 105.024L191.078 103.943Z" fill="black"/>
<path d="M188.415 121.392L188.72 120.298L196.459 125.87L196.158 126.947L186.653 127.708L186.958 126.613L194.935 126.062L194.954 125.994L188.415 121.392ZM191.67 122.736L190.439 127.149L189.513 126.89L190.744 122.478L191.67 122.736Z" fill="black"/>
<path d="M190.257 140.222L191.118 140.652L188.122 146.66L187.261 146.231L188.517 143.712L181.367 140.147L181.85 139.177L189.001 142.742L190.257 140.222Z" fill="black"/>
<path d="M174.025 152.286L181.135 157.724L177.853 162.016L177.089 161.431L179.713 158.001L177.31 156.164L174.857 159.372L174.093 158.788L176.546 155.579L174.13 153.731L171.464 157.217L170.7 156.633L174.025 152.286Z" fill="black"/>
<path d="M161.104 166.651L163.167 164.814L169.12 171.5L166.966 173.418C166.317 173.996 165.643 174.356 164.944 174.499C164.246 174.645 163.552 174.578 162.862 174.298C162.175 174.021 161.523 173.536 160.906 172.844C160.286 172.148 159.876 171.438 159.677 170.714C159.479 169.993 159.498 169.286 159.732 168.594C159.968 167.903 160.425 167.256 161.104 166.651ZM162.997 166.253L161.796 167.323C161.243 167.815 160.88 168.33 160.707 168.867C160.533 169.404 160.532 169.949 160.705 170.501C160.877 171.054 161.205 171.603 161.69 172.147C162.17 172.686 162.672 173.073 163.195 173.305C163.721 173.54 164.251 173.606 164.788 173.503C165.326 173.402 165.856 173.119 166.379 172.654L167.671 171.503L162.997 166.253Z" fill="black"/>
<path d="M133.717 183.71L136.759 192.129L133.914 193.157C133.253 193.395 132.67 193.471 132.165 193.384C131.658 193.301 131.23 193.095 130.882 192.765C130.533 192.435 130.269 192.023 130.09 191.526C129.911 191.03 129.85 190.543 129.906 190.064C129.959 189.586 130.152 189.151 130.484 188.758C130.818 188.368 131.312 188.055 131.967 187.818L134.006 187.082L134.332 187.986L132.326 188.711C131.874 188.874 131.539 189.084 131.322 189.339C131.104 189.594 130.981 189.877 130.954 190.187C130.925 190.501 130.972 190.827 131.093 191.164C131.215 191.501 131.387 191.78 131.609 192C131.829 192.221 132.104 192.357 132.435 192.408C132.767 192.462 133.162 192.406 133.62 192.24L135.412 191.593L132.697 184.078L133.717 183.71Z" fill="black"/>
<path d="M117.114 188.533L118.508 197.375L115.52 197.846C114.829 197.955 114.244 197.926 113.763 197.76C113.283 197.597 112.904 197.328 112.627 196.953C112.349 196.577 112.17 196.129 112.088 195.608C112.005 195.087 112.039 194.608 112.189 194.172C112.338 193.735 112.615 193.367 113.019 193.068C113.424 192.771 113.968 192.568 114.654 192.46L117.071 192.079L117.224 193.046L114.84 193.422C114.368 193.497 113.999 193.625 113.733 193.809C113.464 193.993 113.285 194.222 113.195 194.496C113.103 194.773 113.085 195.088 113.141 195.442C113.197 195.796 113.312 196.095 113.486 196.339C113.66 196.583 113.904 196.754 114.217 196.852C114.531 196.953 114.927 196.966 115.405 196.891L117.287 196.594L116.044 188.701L117.114 188.533ZM113.578 193.161L110.776 189.531L112.019 189.336L114.787 192.97L113.578 193.161Z" fill="black"/>
<path d="M99.6111 190.122L99.306 199.069L93.9065 198.885L93.9393 197.924L98.2553 198.071L98.3584 195.048L94.322 194.91L94.3547 193.949L98.3912 194.087L98.4949 191.046L94.1089 190.897L94.1417 189.936L99.6111 190.122Z" fill="black"/>
<path d="M81.6376 197.392L80.3762 197.104L79.0645 189.182L78.9622 189.159L74.3422 195.726L73.0808 195.438L75.0736 186.711L76.0622 186.937L74.5482 193.567L74.6334 193.587L78.8747 187.579L79.8292 187.797L81.0425 195.05L81.1277 195.07L82.6417 188.439L83.6304 188.665L81.6376 197.392Z" fill="black"/>
<path d="M59.3173 190.337L62.9257 182.144L63.9177 182.581L60.3093 190.774L59.3173 190.337Z" fill="black"/>
<path d="M40.8233 179.614L39.9318 178.997L43.3044 174.123C43.6526 173.62 44.0821 173.252 44.5929 173.021C45.0996 172.791 45.6463 172.71 46.2327 172.779C46.8175 172.851 47.3987 173.086 47.9762 173.486C48.5537 173.886 48.979 174.346 49.2521 174.868C49.5235 175.393 49.6419 175.934 49.6072 176.491C49.5684 177.049 49.3749 177.579 49.0267 178.082L45.6542 182.957L44.7628 182.34L48.0856 177.538C48.3343 177.178 48.4766 176.803 48.5124 176.414C48.5466 176.026 48.473 175.651 48.2918 175.288C48.1065 174.926 47.8089 174.603 47.3992 174.32C46.9894 174.036 46.5824 173.872 46.1782 173.826C45.7724 173.782 45.3954 173.846 45.0473 174.016C44.6952 174.187 44.3948 174.452 44.146 174.812L40.8233 179.614Z" fill="black"/>
<path d="M31.3952 171.784L30.4898 170.86L33.669 163.487L33.5956 163.412L26.1585 166.439L25.2531 165.515L31.6479 159.25L32.3575 159.975L27.499 164.734L27.5602 164.797L34.3763 162.035L35.0615 162.735L32.1606 169.493L32.2218 169.555L37.0803 164.796L37.79 165.52L31.3952 171.784Z" fill="black"/>
<path d="M16.2772 134.546L17.3385 137.096L9.07357 140.535L7.96529 137.872C7.63168 137.07 7.51168 136.315 7.60527 135.607C7.69617 134.9 7.98642 134.267 8.47602 133.706C8.96293 133.147 9.63416 132.689 10.4897 132.333C11.3506 131.975 12.1557 131.82 12.9048 131.868C13.6512 131.917 14.3132 132.166 14.8909 132.614C15.4658 133.062 15.928 133.707 16.2772 134.546ZM16.0342 136.465L15.4163 134.98C15.1319 134.297 14.7644 133.785 14.3138 133.446C13.8632 133.106 13.3485 132.927 12.7698 132.909C12.191 132.891 11.5653 133.022 10.8927 133.302C10.2255 133.58 9.69644 133.928 9.30554 134.346C8.91194 134.765 8.67612 135.245 8.59808 135.786C8.51734 136.328 8.61132 136.921 8.87999 137.567L9.54496 139.165L16.0342 136.465Z" fill="black"/>
<path d="M11.4801 120.012L2.71368 121.825L1.61966 116.534L2.56137 116.339L3.43588 120.568L6.39797 119.956L5.58011 116.001L6.52181 115.806L7.33967 119.761L10.3189 119.145L9.43021 114.847L10.3719 114.653L11.4801 120.012Z" fill="black"/>
<path d="M2.87135 96.5369L2.886 97.6208C2.57509 97.6891 2.30271 97.805 2.06886 97.9684C1.83498 98.129 1.63944 98.3239 1.48225 98.5534C1.32211 98.7799 1.2031 99.0307 1.12522 99.3057C1.04733 99.5807 1.0104 99.8668 1.01441 100.164C1.02173 100.706 1.16531 101.195 1.44515 101.631C1.72495 102.065 2.13321 102.407 2.66993 102.66C3.20661 102.909 3.86248 103.028 4.63754 103.018C5.4126 103.007 6.06501 102.87 6.59476 102.607C7.12447 102.34 7.52333 101.986 7.79131 101.546C8.05926 101.102 8.18958 100.609 8.18225 100.067C8.17824 99.77 8.13359 99.485 8.0483 99.2122C7.96302 98.9394 7.83873 98.6919 7.67544 98.4697C7.5092 98.2446 7.30701 98.055 7.06887 97.9009C6.82778 97.7438 6.55237 97.6354 6.24264 97.5754L6.228 96.4915C6.68656 96.5669 7.09795 96.71 7.46217 96.9207C7.82639 97.1315 8.13741 97.3954 8.39524 97.7125C8.65015 98.0296 8.84587 98.3869 8.98238 98.7843C9.11885 99.1788 9.19014 99.6018 9.19624 100.053C9.20656 100.817 9.02925 101.498 8.66432 102.098C8.29939 102.697 7.7754 103.172 7.09236 103.522C6.40932 103.872 5.59577 104.054 4.65171 104.067C3.70765 104.079 2.8895 103.92 2.19725 103.588C1.505 103.257 0.968373 102.796 0.587381 102.207C0.20639 101.618 0.0107372 100.941 0.000423492 100.178C-0.00567813 99.7261 0.0541538 99.3012 0.179919 98.9032C0.305645 98.5022 0.493092 98.1398 0.742258 97.8159C0.988511 97.492 1.29083 97.2198 1.64923 96.9993C2.00471 96.7788 2.41208 96.6247 2.87135 96.5369Z" fill="black"/>
<path d="M6.86885 77.8273C7.79826 77.9935 8.57146 78.3048 9.18844 78.7615C9.80542 79.2181 10.2452 79.7719 10.5078 80.4227C10.7703 81.0735 10.8344 81.7747 10.7001 82.5262C10.5657 83.2778 10.2627 83.9134 9.7909 84.4329C9.31912 84.9525 8.71474 85.3195 7.97777 85.5341C7.2408 85.7487 6.4076 85.773 5.47819 85.6068C4.54878 85.4407 3.77559 85.1293 3.1586 84.6727C2.54162 84.216 2.10184 83.6623 1.83928 83.0115C1.57671 82.3607 1.5126 81.6595 1.64695 80.9079C1.78129 80.1564 2.08436 79.5208 2.55614 79.0013C3.02792 78.4817 3.6323 78.1146 4.36927 77.9C5.10625 77.6854 5.93944 77.6612 6.86885 77.8273ZM6.68425 78.86C5.92121 78.7236 5.25441 78.7361 4.68382 78.8976C4.11375 79.0562 3.65518 79.328 3.30811 79.7129C2.96155 80.095 2.74058 80.5528 2.6452 81.0864C2.54983 81.6199 2.59824 82.1274 2.79046 82.6087C2.98319 83.0872 3.3192 83.501 3.79851 83.8502C4.27833 84.1964 4.89976 84.4378 5.66279 84.5742C6.42583 84.7106 7.09238 84.6995 7.66245 84.5409C8.23303 84.3794 8.6916 84.1076 9.03816 83.7255C9.38524 83.3406 9.60646 82.8813 9.70184 82.3478C9.79722 81.8142 9.74854 81.3082 9.55581 80.8297C9.3636 80.3484 9.02758 79.9346 8.54776 79.5883C8.06845 79.2392 7.44728 78.9964 6.68425 78.86Z" fill="black"/>
<path d="M14.1169 68.9995L5.76208 65.785L6.84824 62.962C7.09937 62.3092 7.41701 61.8164 7.80117 61.4833C8.18261 61.1493 8.60514 60.9559 9.06877 60.9032C9.53239 60.8506 10.0103 60.9189 10.5026 61.1083C10.9949 61.2977 11.3926 61.5663 11.696 61.914C11.9993 62.2618 12.1797 62.6856 12.2372 63.1854C12.2919 63.6842 12.1948 64.2572 11.9457 64.9045L11.0668 67.189L10.153 66.8374L11.0194 64.5855C11.191 64.1395 11.2638 63.7554 11.2379 63.4332C11.2131 63.1083 11.1045 62.8386 10.9123 62.6241C10.7184 62.4059 10.4541 62.2324 10.1196 62.1037C9.7851 61.975 9.46867 61.9251 9.17032 61.9539C8.87198 61.9828 8.60197 62.1084 8.3603 62.3307C8.11591 62.552 7.90687 62.8884 7.73317 63.3399L7.04883 65.1186L14.5062 67.9878L14.1169 68.9995ZM11.8768 63.6228L16.4211 63.0108L15.969 64.1857L11.4374 64.7651L11.8768 63.6228Z" fill="black"/>
<path d="M21.7048 52.7049L21.1034 53.6692L15.2475 46.1426L15.8397 45.1932L25.1747 47.1418L24.5733 48.1061L16.7637 46.3877L16.7267 46.4471L21.7048 52.7049ZM18.9599 50.4983L21.3842 46.6115L22.2001 47.1204L19.7758 51.0072L18.9599 50.4983Z" fill="black"/>
<path d="M25.2421 34.1184L24.5372 33.4643L29.1043 28.543L29.8092 29.1972L27.8943 31.2605L33.7511 36.6958L33.0137 37.4904L27.1569 32.0551L25.2421 34.1184Z" fill="black"/>
<path d="M41.4529 18.0436L46.7435 25.2648L45.8691 25.9055L40.5785 18.6843L41.4529 18.0436Z" fill="black"/>
<path d="M63.3036 10.771C63.7074 11.6244 63.9023 12.4349 63.8882 13.2023C63.8741 13.9698 63.6781 14.6492 63.3003 15.2406C62.9225 15.832 62.3885 16.2909 61.6984 16.6175C61.0082 16.944 60.3147 17.0658 59.6178 16.9828C58.921 16.8999 58.2714 16.6205 57.6691 16.1447C57.0668 15.6688 56.5638 15.0042 56.16 14.1507C55.7562 13.2973 55.5613 12.4868 55.5754 11.7194C55.5895 10.9519 55.7855 10.2725 56.1633 9.68111C56.5411 9.08972 57.0751 8.63077 57.7653 8.30426C58.4554 7.97774 59.1489 7.85596 59.8458 7.93889C60.5426 8.02182 61.1922 8.30121 61.7945 8.77705C62.3968 9.25288 62.8999 9.91753 63.3036 10.771ZM62.3554 11.2196C62.0239 10.5189 61.6269 9.98305 61.1644 9.61192C60.7045 9.23955 60.2171 9.02365 59.7022 8.96423C59.19 8.90356 58.6889 8.98912 58.1989 9.22092C57.709 9.45272 57.3237 9.78651 57.0431 10.2223C56.7652 10.6568 56.623 11.1706 56.6166 11.7635C56.6129 12.3552 56.7768 13.0014 57.1082 13.7021C57.4397 14.4028 57.8354 14.9393 58.2953 15.3117C58.7578 15.6828 59.2452 15.8987 59.7574 15.9594C60.2723 16.0188 60.7747 15.9326 61.2647 15.7008C61.7546 15.469 62.1386 15.1358 62.4165 14.7013C62.6971 14.2655 62.8393 13.7518 62.843 13.16C62.8494 12.5671 62.6869 11.9203 62.3554 11.2196Z" fill="black"/>
<path d="M79.1709 1.16264L81.3987 9.83288L80.3827 10.0939L73.9089 4.50044L73.8242 4.5222L75.5734 11.3297L74.5235 11.5995L72.2957 2.92923L73.3117 2.66816L79.8068 8.27424L79.8915 8.25249L78.1379 1.42806L79.1709 1.16264Z" fill="black"/>
<path d="M103.247 3.83151C102.897 3.78605 102.589 3.65929 102.322 3.45122C102.056 3.24027 101.855 2.97904 101.719 2.66752C101.586 2.35639 101.542 2.02599 101.588 1.67634C101.634 1.32379 101.76 1.01557 101.968 0.751652C102.179 0.485225 102.44 0.28555 102.751 0.152628C103.063 0.0168163 103.393 -0.0283592 103.743 0.0171013C104.095 0.0629374 104.404 0.191144 104.667 0.401721C104.934 0.609784 105.134 0.869384 105.267 1.18052C105.403 1.48914 105.448 1.81973 105.402 2.17227C105.357 2.52192 105.228 2.82997 105.018 3.09639C104.809 3.3632 104.55 3.5645 104.238 3.70032C103.93 3.83361 103.6 3.87734 103.247 3.83151Z" fill="black"/>
<path d="M47.7996 95.3495C47.3516 91.9278 49.7411 87.3161 55.1175 82.8531C59.8965 78.8364 63.6301 78.0926 66.169 78.0926C69.6039 78.0926 69.3052 81.8117 67.8118 81.2167C65.8703 80.4728 62.1367 81.0679 57.3577 84.6383C52.5787 88.2087 50.7865 91.7791 50.9359 94.3081C51.0852 97.4322 55.7149 98.7711 60.6433 98.176C71.6947 96.9859 96.0378 85.8284 106.641 80.1753C107.388 79.729 110.524 79.8778 108.135 81.5142C96.9339 88.655 71.6947 99.0686 61.5393 100.556C54.5201 101.598 48.5464 100.408 47.7996 95.3495ZM124.861 84.0432C121.576 84.0432 111.719 91.4815 101.116 111.119C98.4273 120.193 95.8885 128.227 94.2457 132.839C90.5121 143.55 89.0187 147.12 87.9732 147.12C87.0772 147.269 86.0318 146.376 85.8824 145.335C85.8824 144.591 88.1226 132.987 95.2911 117.367C96.4859 114.54 97.83 111.863 99.1741 109.333C102.46 98.3248 104.998 85.8284 107.687 70.3567C107.985 68.274 110.823 69.1666 110.524 71.3981C109.18 80.3241 106.791 91.0352 103.953 101.151C111.868 88.9525 119.784 81.8117 125.16 81.8117C127.101 81.8117 130.088 84.4895 130.088 89.8451C130.088 90.5889 129.939 91.3328 129.939 92.0766C140.692 86.8698 152.938 81.9605 162.197 79.4315C163.989 78.9852 165.782 80.4728 163.84 80.9191C154.581 83.4482 140.692 89.25 129.192 95.2007C127.998 99.2174 125.608 103.234 122.77 106.209C114.557 114.392 106.044 113.499 106.044 109.482C106.044 105.912 114.557 99.9612 125.757 94.1593C126.205 92.3741 126.504 90.7377 126.653 89.1013C126.803 85.9772 126.056 84.0432 124.861 84.0432ZM119.933 103.978C121.874 102.193 123.368 99.9612 124.413 97.5809C115.751 102.193 109.479 106.507 109.479 108.59C109.479 110.077 112.914 110.821 119.933 103.978Z" fill="black"/>
</g>
<defs>
<clipPath id="clip0_401_198">
<rect width="200" height="200" fill="white"/>
</clipPath>
</defs>
</svg>
