<svg width="420" height="100" viewBox="0 0 420 100" fill="none" xmlns="http://www.w3.org/2000/svg">
<path d="M0.0666525 34.0483C-0.496969 29.7272 2.50901 23.9031 9.27247 18.2669C15.2844 13.1943 19.9813 12.2549 23.1751 12.2549C27.4962 12.2549 27.1205 16.9518 25.2417 16.2003C22.7994 15.2609 18.1025 16.0124 12.0906 20.5214C6.07861 25.0303 3.82413 29.5393 4.012 32.7331C4.19988 36.6785 10.024 38.3694 16.2238 37.6179C30.1265 36.1149 60.7499 22.0243 74.0889 14.8851C75.0283 14.3215 78.9736 14.5094 75.9677 16.576C61.8771 25.594 30.1265 38.7451 17.351 40.6238C8.52097 41.939 1.00602 40.436 0.0666525 34.0483ZM97.0095 19.7699C92.8763 19.7699 80.4766 29.1635 67.1376 53.9629C63.7559 65.4232 60.562 75.5684 58.4954 81.3925C53.7986 94.9194 51.9198 99.4283 50.6047 99.4283C49.4775 99.6162 48.1623 98.489 47.9745 97.1739C47.9745 96.2345 50.7926 81.5803 59.8105 61.8536C61.3135 58.284 63.0044 54.9023 64.6952 51.7084C68.8285 37.8057 72.0223 22.0243 75.4041 2.48548C75.7798 -0.144757 79.3494 0.98248 78.9737 3.80059C77.2828 15.073 74.2768 28.5999 70.7072 41.3753C80.6645 25.9697 90.6218 16.9518 97.3853 16.9518C99.8276 16.9518 103.585 20.3335 103.585 27.0969C103.585 28.0363 103.397 28.9757 103.397 29.915C116.924 23.3395 132.33 17.1396 143.978 13.9458C146.232 13.3821 148.487 15.2609 146.045 15.8245C134.396 19.0184 116.924 26.3454 102.458 33.8604C100.955 38.933 97.9489 44.0056 94.3793 47.7631C84.0462 58.0961 73.3374 56.9689 73.3374 51.8963C73.3374 47.3873 84.0462 39.8724 98.1368 32.5453C98.7004 30.2908 99.0761 28.2242 99.264 26.1576C99.4519 22.2122 98.5125 19.7699 97.0095 19.7699ZM90.8097 44.945C93.2521 42.6905 95.1308 39.8724 96.4459 36.8664C85.5492 42.6905 77.6585 48.1388 77.6585 50.769C77.6585 52.6478 81.9796 53.5871 90.8097 44.945Z" fill="black"/>
<path d="M163.409 20.4489V8.81254H164.818V13.9944H171.023V8.81254H172.432V20.4489H171.023V15.2444H164.818V20.4489H163.409Z" fill="#6A6A6A"/>
<path d="M180.21 20.4489H178.733L183.006 8.81254H184.46L188.733 20.4489H187.256L183.778 10.6535H183.687L180.21 20.4489ZM180.756 15.9035H186.71V17.1535H180.756V15.9035Z" fill="#6A6A6A"/>
<path d="M204.253 8.81254V20.4489H202.889L196.548 11.3125H196.434V20.4489H195.025V8.81254H196.389L202.753 17.9716H202.866V8.81254H204.253Z" fill="#6A6A6A"/>
<path d="M215.143 20.4489H211.552V8.81254H215.302C216.431 8.81254 217.397 9.0455 218.2 9.51141C219.003 9.97353 219.619 10.6383 220.047 11.5057C220.475 12.3694 220.689 13.4035 220.689 14.608C220.689 15.8201 220.473 16.8637 220.041 17.7387C219.609 18.6099 218.98 19.2803 218.154 19.75C217.329 20.216 216.325 20.4489 215.143 20.4489ZM212.961 19.1989H215.052C216.014 19.1989 216.812 19.0133 217.444 18.6421C218.077 18.2709 218.548 17.7425 218.859 17.0569C219.17 16.3713 219.325 15.555 219.325 14.608C219.325 13.6686 219.172 12.8599 218.865 12.1819C218.558 11.5 218.1 10.9773 217.49 10.6137C216.88 10.2463 216.12 10.0625 215.211 10.0625H212.961V19.1989Z" fill="#6A6A6A"/>
<path d="M245.876 12.4489H244.467C244.383 12.0436 244.238 11.6875 244.029 11.3807C243.825 11.0739 243.575 10.8163 243.279 10.608C242.988 10.3959 242.664 10.2368 242.308 10.1307C241.952 10.0247 241.58 9.97163 241.194 9.97163C240.489 9.97163 239.851 10.1497 239.279 10.5057C238.711 10.8618 238.258 11.3864 237.921 12.0796C237.588 12.7728 237.421 13.6231 237.421 14.6307C237.421 15.6383 237.588 16.4887 237.921 17.1819C238.258 17.875 238.711 18.3997 239.279 18.7557C239.851 19.1118 240.489 19.2898 241.194 19.2898C241.58 19.2898 241.952 19.2368 242.308 19.1307C242.664 19.0247 242.988 18.8675 243.279 18.6591C243.575 18.447 243.825 18.1875 244.029 17.8807C244.238 17.5701 244.383 17.2141 244.467 16.8125H245.876C245.77 17.4072 245.577 17.9394 245.296 18.4091C245.016 18.8788 244.668 19.2785 244.251 19.608C243.834 19.9338 243.366 20.1819 242.847 20.3523C242.332 20.5228 241.781 20.608 241.194 20.608C240.202 20.608 239.319 20.3656 238.546 19.8807C237.774 19.3959 237.166 18.7065 236.722 17.8125C236.279 16.9186 236.058 15.858 236.058 14.6307C236.058 13.4035 236.279 12.3428 236.722 11.4489C237.166 10.555 237.774 9.86557 238.546 9.38072C239.319 8.89588 240.202 8.65345 241.194 8.65345C241.781 8.65345 242.332 8.73868 242.847 8.90913C243.366 9.07959 243.834 9.32959 244.251 9.65913C244.668 9.98489 245.016 10.3826 245.296 10.8523C245.577 11.3182 245.77 11.8504 245.876 12.4489Z" fill="#6A6A6A"/>
<path d="M252.633 20.4489V8.81254H256.565C257.474 8.81254 258.22 8.96785 258.803 9.27845C259.387 9.58527 259.818 10.0076 260.099 10.5455C260.379 11.0834 260.519 11.6951 260.519 12.3807C260.519 13.0663 260.379 13.6743 260.099 14.2046C259.818 14.7349 259.389 15.1516 258.809 15.4546C258.229 15.7538 257.489 15.9035 256.587 15.9035H253.406V14.6307H256.542C257.163 14.6307 257.663 14.5398 258.042 14.358C258.425 14.1762 258.701 13.9186 258.871 13.5853C259.046 13.2481 259.133 12.8466 259.133 12.3807C259.133 11.9148 259.046 11.5076 258.871 11.1591C258.697 10.8106 258.419 10.5417 258.036 10.3523C257.654 10.1591 257.148 10.0625 256.519 10.0625H254.042V20.4489H252.633ZM258.11 15.2216L260.974 20.4489H259.337L256.519 15.2216H258.11Z" fill="#6A6A6A"/>
<path d="M267.824 20.4489H266.347L270.62 8.81254H272.074L276.347 20.4489H274.87L271.393 10.6535H271.302L267.824 20.4489ZM268.37 15.9035H274.324V17.1535H268.37V15.9035Z" fill="#6A6A6A"/>
<path d="M282.64 20.4489V8.81254H289.617V10.0625H284.049V13.9944H289.094V15.2444H284.049V20.4489H282.64Z" fill="#6A6A6A"/>
<path d="M295.874 10.0625V8.81254H304.601V10.0625H300.942V20.4489H299.533V10.0625H295.874Z" fill="#6A6A6A"/>
<path d="M311.256 20.4489V8.81254H318.279V10.0625H312.665V13.9944H317.915V15.2444H312.665V19.1989H318.37V20.4489H311.256Z" fill="#6A6A6A"/>
<path d="M328.889 20.4489H325.298V8.81254H329.048C330.177 8.81254 331.143 9.0455 331.946 9.51141C332.749 9.97353 333.365 10.6383 333.793 11.5057C334.221 12.3694 334.435 13.4035 334.435 14.608C334.435 15.8201 334.219 16.8637 333.787 17.7387C333.355 18.6099 332.726 19.2803 331.901 19.75C331.075 20.216 330.071 20.4489 328.889 20.4489ZM326.708 19.1989H328.798C329.761 19.1989 330.558 19.0133 331.191 18.6421C331.823 18.2709 332.295 17.7425 332.605 17.0569C332.916 16.3713 333.071 15.555 333.071 14.608C333.071 13.6686 332.918 12.8599 332.611 12.1819C332.304 11.5 331.846 10.9773 331.236 10.6137C330.626 10.2463 329.867 10.0625 328.958 10.0625H326.708V19.1989Z" fill="#6A6A6A"/>
<path d="M163.409 50.4489V38.8125H167.341C168.254 38.8125 169 38.9773 169.58 39.3069C170.163 39.6326 170.595 40.0739 170.875 40.6307C171.155 41.1875 171.295 41.8088 171.295 42.4944C171.295 43.18 171.155 43.8031 170.875 44.3637C170.598 44.9243 170.17 45.3713 169.591 45.7046C169.011 46.0341 168.269 46.1989 167.364 46.1989H164.545V44.9489H167.318C167.943 44.9489 168.445 44.841 168.824 44.625C169.203 44.4091 169.477 44.1175 169.648 43.75C169.822 43.3788 169.909 42.9603 169.909 42.4944C169.909 42.0285 169.822 41.6118 169.648 41.2444C169.477 40.8769 169.201 40.5891 168.818 40.3807C168.436 40.1686 167.928 40.0625 167.295 40.0625H164.818V50.4489H163.409Z" fill="#6A6A6A"/>
<path d="M178.045 50.4489V38.8125H181.977C182.886 38.8125 183.632 38.9678 184.216 39.2785C184.799 39.5853 185.231 40.0076 185.511 40.5455C185.792 41.0834 185.932 41.6951 185.932 42.3807C185.932 43.0663 185.792 43.6743 185.511 44.2046C185.231 44.7349 184.801 45.1516 184.221 45.4546C183.642 45.7538 182.901 45.9035 182 45.9035H178.818V44.6307H181.954C182.576 44.6307 183.076 44.5398 183.454 44.358C183.837 44.1762 184.114 43.9186 184.284 43.5853C184.458 43.2481 184.545 42.8466 184.545 42.3807C184.545 41.9148 184.458 41.5076 184.284 41.1591C184.11 40.8106 183.831 40.5417 183.449 40.3523C183.066 40.1591 182.56 40.0625 181.932 40.0625H179.454V50.4489H178.045ZM183.523 45.2216L186.386 50.4489H184.75L181.932 45.2216H183.523Z" fill="#6A6A6A"/>
<path d="M192.76 50.4489V38.8125H199.782V40.0625H194.169V43.9944H199.419V45.2444H194.169V49.1989H199.873V50.4489H192.76Z" fill="#6A6A6A"/>
<path d="M206.802 38.8125H208.484L212.439 48.4716H212.575L216.529 38.8125H218.211V50.4489H216.893V41.608H216.779L213.143 50.4489H211.87L208.234 41.608H208.12V50.4489H206.802V38.8125Z" fill="#6A6A6A"/>
<path d="M226.926 38.8125V50.4489H225.517V38.8125H226.926Z" fill="#6A6A6A"/>
<path d="M241.867 38.8125H243.276V46.5171C243.276 47.3125 243.089 48.0228 242.714 48.6478C242.343 49.269 241.818 49.7595 241.14 50.1194C240.462 50.4754 239.667 50.6535 238.754 50.6535C237.841 50.6535 237.045 50.4754 236.367 50.1194C235.689 49.7595 235.163 49.269 234.788 48.6478C234.417 48.0228 234.231 47.3125 234.231 46.5171V38.8125H235.64V46.4035C235.64 46.9716 235.765 47.4773 236.015 47.9205C236.265 48.3599 236.621 48.7065 237.083 48.9603C237.549 49.2103 238.106 49.3353 238.754 49.3353C239.401 49.3353 239.958 49.2103 240.424 48.9603C240.89 48.7065 241.246 48.3599 241.492 47.9205C241.742 47.4773 241.867 46.9716 241.867 46.4035V38.8125Z" fill="#6A6A6A"/>
<path d="M250.57 38.8125H252.252L256.207 48.4716H256.343L260.298 38.8125H261.979V50.4489H260.661V41.608H260.548L256.911 50.4489H255.639L252.002 41.608H251.889V50.4489H250.57V38.8125Z" fill="#6A6A6A"/>
<path d="M281.856 50.4489H278.265V38.8125H282.015C283.143 38.8125 284.109 39.0455 284.912 39.5114C285.715 39.9735 286.331 40.6383 286.759 41.5057C287.187 42.3694 287.401 43.4035 287.401 44.608C287.401 45.8201 287.185 46.8637 286.753 47.7387C286.322 48.6099 285.693 49.2803 284.867 49.75C284.041 50.216 283.037 50.4489 281.856 50.4489ZM279.674 49.1989H281.765C282.727 49.1989 283.524 49.0133 284.157 48.6421C284.789 48.2709 285.261 47.7425 285.572 47.0569C285.882 46.3713 286.037 45.555 286.037 44.608C286.037 43.6686 285.884 42.8599 285.577 42.1819C285.27 41.5 284.812 40.9773 284.202 40.6137C283.592 40.2463 282.833 40.0625 281.924 40.0625H279.674V49.1989Z" fill="#6A6A6A"/>
<path d="M294.245 50.4489V38.8125H301.267V40.0625H295.654V43.9944H300.904V45.2444H295.654V49.1989H301.358V50.4489H294.245Z" fill="#6A6A6A"/>
<path d="M317.651 42.4489H316.242C316.158 42.0436 316.013 41.6875 315.804 41.3807C315.6 41.0739 315.35 40.8163 315.054 40.608C314.763 40.3959 314.439 40.2368 314.083 40.1307C313.727 40.0247 313.355 39.9716 312.969 39.9716C312.264 39.9716 311.626 40.1497 311.054 40.5057C310.486 40.8618 310.033 41.3864 309.696 42.0796C309.363 42.7728 309.196 43.6232 309.196 44.6307C309.196 45.6383 309.363 46.4887 309.696 47.1819C310.033 47.875 310.486 48.3997 311.054 48.7557C311.626 49.1118 312.264 49.2898 312.969 49.2898C313.355 49.2898 313.727 49.2368 314.083 49.1307C314.439 49.0247 314.763 48.8675 315.054 48.6591C315.35 48.447 315.6 48.1875 315.804 47.8807C316.013 47.5701 316.158 47.2141 316.242 46.8125H317.651C317.545 47.4072 317.352 47.9394 317.071 48.4091C316.791 48.8788 316.443 49.2785 316.026 49.608C315.609 49.9338 315.141 50.1819 314.622 50.3523C314.107 50.5228 313.556 50.608 312.969 50.608C311.977 50.608 311.094 50.3656 310.321 49.8807C309.549 49.3959 308.941 48.7065 308.497 47.8125C308.054 46.9186 307.833 45.858 307.833 44.6307C307.833 43.4035 308.054 42.3428 308.497 41.4489C308.941 40.555 309.549 39.8656 310.321 39.3807C311.094 38.8959 311.977 38.6535 312.969 38.6535C313.556 38.6535 314.107 38.7387 314.622 38.9091C315.141 39.0796 315.609 39.3296 316.026 39.6591C316.443 39.9849 316.791 40.3826 317.071 40.8523C317.352 41.3182 317.545 41.8504 317.651 42.4489Z" fill="#6A6A6A"/>
<path d="M334.226 44.6307C334.226 45.858 334.004 46.9186 333.561 47.8125C333.118 48.7065 332.51 49.3959 331.737 49.8807C330.965 50.3656 330.082 50.608 329.09 50.608C328.097 50.608 327.215 50.3656 326.442 49.8807C325.669 49.3959 325.061 48.7065 324.618 47.8125C324.175 46.9186 323.953 45.858 323.953 44.6307C323.953 43.4035 324.175 42.3428 324.618 41.4489C325.061 40.555 325.669 39.8656 326.442 39.3807C327.215 38.8959 328.097 38.6535 329.09 38.6535C330.082 38.6535 330.965 38.8959 331.737 39.3807C332.51 39.8656 333.118 40.555 333.561 41.4489C334.004 42.3428 334.226 43.4035 334.226 44.6307ZM332.862 44.6307C332.862 43.6232 332.694 42.7728 332.357 42.0796C332.023 41.3864 331.571 40.8618 330.999 40.5057C330.431 40.1497 329.794 39.9716 329.09 39.9716C328.385 39.9716 327.747 40.1497 327.175 40.5057C326.607 40.8618 326.154 41.3864 325.817 42.0796C325.484 42.7728 325.317 43.6232 325.317 44.6307C325.317 45.6383 325.484 46.4887 325.817 47.1819C326.154 47.875 326.607 48.3997 327.175 48.7557C327.747 49.1118 328.385 49.2898 329.09 49.2898C329.794 49.2898 330.431 49.1118 330.999 48.7557C331.571 48.3997 332.023 47.875 332.357 47.1819C332.694 46.4887 332.862 45.6383 332.862 44.6307Z" fill="#6A6A6A"/>
<path d="M341.075 50.4489V38.8125H345.007C345.916 38.8125 346.662 38.9678 347.246 39.2785C347.829 39.5853 348.261 40.0076 348.541 40.5455C348.822 41.0834 348.962 41.6951 348.962 42.3807C348.962 43.0663 348.822 43.6743 348.541 44.2046C348.261 44.7349 347.831 45.1516 347.251 45.4546C346.672 45.7538 345.931 45.9035 345.03 45.9035H341.848V44.6307H344.984C345.606 44.6307 346.106 44.5398 346.484 44.358C346.867 44.1762 347.144 43.9186 347.314 43.5853C347.488 43.2481 347.575 42.8466 347.575 42.3807C347.575 41.9148 347.488 41.5076 347.314 41.1591C347.14 40.8106 346.861 40.5417 346.479 40.3523C346.096 40.1591 345.59 40.0625 344.962 40.0625H342.484V50.4489H341.075ZM346.553 45.2216L349.416 50.4489H347.78L344.962 45.2216H346.553Z" fill="#6A6A6A"/>
<path d="M356.267 50.4489H354.79L359.062 38.8125H360.517L364.79 50.4489H363.312L359.835 40.6535H359.744L356.267 50.4489ZM356.812 45.9035H362.767V47.1535H356.812V45.9035Z" fill="#6A6A6A"/>
<path d="M369.086 40.0625V38.8125H377.814V40.0625H374.155V50.4489H372.746V40.0625H369.086Z" fill="#6A6A6A"/>
<path d="M385.878 38.8125V50.4489H384.468V38.8125H385.878Z" fill="#6A6A6A"/>
<path d="M403.001 44.6307C403.001 45.858 402.779 46.9186 402.336 47.8125C401.893 48.7065 401.285 49.3959 400.512 49.8807C399.74 50.3656 398.857 50.608 397.865 50.608C396.872 50.608 395.99 50.3656 395.217 49.8807C394.444 49.3959 393.836 48.7065 393.393 47.8125C392.95 46.9186 392.728 45.858 392.728 44.6307C392.728 43.4035 392.95 42.3428 393.393 41.4489C393.836 40.555 394.444 39.8656 395.217 39.3807C395.99 38.8959 396.872 38.6535 397.865 38.6535C398.857 38.6535 399.74 38.8959 400.512 39.3807C401.285 39.8656 401.893 40.555 402.336 41.4489C402.779 42.3428 403.001 43.4035 403.001 44.6307ZM401.637 44.6307C401.637 43.6232 401.469 42.7728 401.132 42.0796C400.798 41.3864 400.346 40.8618 399.774 40.5057C399.206 40.1497 398.569 39.9716 397.865 39.9716C397.16 39.9716 396.522 40.1497 395.95 40.5057C395.382 40.8618 394.929 41.3864 394.592 42.0796C394.259 42.7728 394.092 43.6232 394.092 44.6307C394.092 45.6383 394.259 46.4887 394.592 47.1819C394.929 47.875 395.382 48.3997 395.95 48.7557C396.522 49.1118 397.16 49.2898 397.865 49.2898C398.569 49.2898 399.206 49.1118 399.774 48.7557C400.346 48.3997 400.798 47.875 401.132 47.1819C401.469 46.4887 401.637 45.6383 401.637 44.6307Z" fill="#6A6A6A"/>
<path d="M419.078 38.8125V50.4489H417.714L411.373 41.3125H411.259V50.4489H409.85V38.8125H411.214L417.578 47.9716H417.691V38.8125H419.078Z" fill="#6A6A6A"/>
</svg>
