<svg width="424" height="100" viewBox="0 0 424 100" fill="none" xmlns="http://www.w3.org/2000/svg">
<path d="M0.068011 33.569C-0.507098 29.1798 2.56015 23.2639 9.46146 17.5389C15.596 12.3864 20.3885 11.4322 23.6475 11.4322C28.0566 11.4322 27.6732 16.2031 25.7562 15.4398C23.2641 14.4856 18.4715 15.2489 12.337 19.8289C6.20251 24.4089 3.90207 28.9889 4.09377 32.2331C4.28548 36.2406 10.2283 37.9581 16.5545 37.1948C30.7405 35.6681 61.9881 21.3556 75.599 14.1039C76.5575 13.5314 80.5833 13.7222 77.516 15.8214C63.1383 24.9814 30.7405 38.3398 17.7047 40.2481C8.69464 41.584 1.02653 40.0573 0.068011 33.569ZM98.9868 19.0656C94.7693 19.0656 82.1169 28.6073 68.506 53.7973C65.0553 65.4382 61.7964 75.7432 59.6876 81.6591C54.8951 95.3991 52.978 99.9791 51.6361 99.9791C50.4859 100.17 49.144 99.0249 48.9523 97.6891C48.9523 96.7349 51.8278 81.8499 61.0296 61.8124C62.5632 58.1865 64.2885 54.7515 66.0138 51.5073C70.2313 37.3856 73.4903 21.3556 76.9409 1.50888C77.3243 -1.16279 80.9667 -0.0177965 80.5833 2.84471C78.8579 14.2947 75.7907 28.0348 72.1483 41.0115C82.3086 25.3631 92.4689 16.2031 99.3702 16.2031C101.862 16.2031 105.696 19.6381 105.696 26.5081C105.696 27.4623 105.505 28.4164 105.505 29.3706C119.307 22.6914 135.027 16.3939 146.912 13.1497C149.213 12.5772 151.513 14.4856 149.021 15.0581C137.136 18.3023 119.307 25.7448 104.546 33.3781C103.013 38.5306 99.9453 43.6831 96.3029 47.4998C85.7593 57.9957 74.8322 56.8507 74.8322 51.6982C74.8322 47.1182 85.7592 39.4848 100.137 32.0423C100.712 29.7523 101.095 27.6531 101.287 25.5539C101.479 21.5464 100.52 19.0656 98.9868 19.0656ZM92.6606 44.6373C95.1527 42.3473 97.0697 39.4848 98.4117 36.4315C87.2929 42.3473 79.2414 47.8815 79.2414 50.5532C79.2414 52.4615 83.6505 53.4157 92.6606 44.6373Z" fill="black"/>
<path d="M167.167 21V9.36364H168.583V14.5455H174.815V9.36364H176.231V21H174.815V15.7955H168.583V21H167.167Z" fill="#606060"/>
<path d="M184.045 21H182.561L186.853 9.36364H188.314L192.606 21H191.122L187.629 11.2045H187.538L184.045 21ZM184.593 16.4545H190.574V17.7045H184.593V16.4545Z" fill="#606060"/>
<path d="M208.197 9.36364V21H206.827L200.457 11.8636H200.343V21H198.927V9.36364H200.297L206.69 18.5227H206.804V9.36364H208.197Z" fill="#606060"/>
<path d="M219.137 21H215.529V9.36364H219.297C220.43 9.36364 221.401 9.59659 222.207 10.0625C223.014 10.5246 223.632 11.1894 224.062 12.0568C224.492 12.9205 224.707 13.9545 224.707 15.1591C224.707 16.3712 224.491 17.4148 224.057 18.2898C223.623 19.161 222.991 19.8314 222.162 20.3011C221.332 20.767 220.324 21 219.137 21ZM216.945 19.75H219.045C220.012 19.75 220.813 19.5644 221.448 19.1932C222.084 18.822 222.558 18.2936 222.87 17.608C223.182 16.9223 223.338 16.1061 223.338 15.1591C223.338 14.2197 223.183 13.411 222.875 12.733C222.567 12.0511 222.107 11.5284 221.494 11.1648C220.881 10.7973 220.118 10.6136 219.205 10.6136H216.945V19.75Z" fill="#606060"/>
<path d="M250.009 13H248.594C248.51 12.5947 248.364 12.2386 248.154 11.9318C247.949 11.625 247.698 11.3674 247.401 11.1591C247.108 10.947 246.783 10.7879 246.425 10.6818C246.067 10.5758 245.694 10.5227 245.306 10.5227C244.598 10.5227 243.957 10.7008 243.383 11.0568C242.812 11.4129 242.357 11.9375 242.019 12.6307C241.684 13.3239 241.516 14.1742 241.516 15.1818C241.516 16.1894 241.684 17.0398 242.019 17.733C242.357 18.4261 242.812 18.9508 243.383 19.3068C243.957 19.6629 244.598 19.8409 245.306 19.8409C245.694 19.8409 246.067 19.7879 246.425 19.6818C246.783 19.5758 247.108 19.4186 247.401 19.2102C247.698 18.9981 247.949 18.7386 248.154 18.4318C248.364 18.1212 248.51 17.7652 248.594 17.3636H250.009C249.903 17.9583 249.709 18.4905 249.427 18.9602C249.146 19.4299 248.796 19.8295 248.377 20.1591C247.958 20.4848 247.488 20.733 246.967 20.9034C246.45 21.0739 245.896 21.1591 245.306 21.1591C244.309 21.1591 243.423 20.9167 242.646 20.4318C241.87 19.947 241.259 19.2576 240.814 18.3636C240.369 17.4697 240.146 16.4091 240.146 15.1818C240.146 13.9545 240.369 12.8939 240.814 12C241.259 11.1061 241.87 10.4167 242.646 9.93182C243.423 9.44697 244.309 9.20455 245.306 9.20455C245.896 9.20455 246.45 9.28977 246.967 9.46023C247.488 9.63068 247.958 9.88068 248.377 10.2102C248.796 10.536 249.146 10.9337 249.427 11.4034C249.709 11.8693 249.903 12.4015 250.009 13Z" fill="#606060"/>
<path d="M256.797 21V9.36364H260.747C261.66 9.36364 262.41 9.51894 262.996 9.82955C263.582 10.1364 264.015 10.5587 264.297 11.0966C264.579 11.6345 264.719 12.2462 264.719 12.9318C264.719 13.6174 264.579 14.2254 264.297 14.7557C264.015 15.286 263.584 15.7027 263.001 16.0057C262.419 16.3049 261.675 16.4545 260.77 16.4545H257.573V15.1818H260.724C261.348 15.1818 261.85 15.0909 262.231 14.9091C262.615 14.7273 262.893 14.4697 263.064 14.1364C263.239 13.7992 263.327 13.3977 263.327 12.9318C263.327 12.4659 263.239 12.0587 263.064 11.7102C262.889 11.3617 262.609 11.0928 262.225 10.9034C261.841 10.7102 261.333 10.6136 260.701 10.6136H258.213V21H256.797ZM262.299 15.7727L265.176 21H263.532L260.701 15.7727H262.299Z" fill="#606060"/>
<path d="M272.058 21H270.574L274.866 9.36364H276.327L280.62 21H279.136L275.642 11.2045H275.551L272.058 21ZM272.606 16.4545H278.588V17.7045H272.606V16.4545Z" fill="#606060"/>
<path d="M286.941 21V9.36364H293.95V10.6136H288.356V14.5455H293.425V15.7955H288.356V21H286.941Z" fill="#606060"/>
<path d="M300.235 10.6136V9.36364H309.002V10.6136H305.327V21H303.911V10.6136H300.235Z" fill="#606060"/>
<path d="M315.687 21V9.36364H322.742V10.6136H317.103V14.5455H322.377V15.7955H317.103V19.75H322.833V21H315.687Z" fill="#606060"/>
<path d="M333.401 21H329.794V9.36364H333.561C334.695 9.36364 335.665 9.59659 336.472 10.0625C337.278 10.5246 337.897 11.1894 338.327 12.0568C338.757 12.9205 338.972 13.9545 338.972 15.1591C338.972 16.3712 338.755 17.4148 338.321 18.2898C337.887 19.161 337.256 19.8314 336.426 20.3011C335.597 20.767 334.588 21 333.401 21ZM331.209 19.75H333.31C334.276 19.75 335.077 19.5644 335.713 19.1932C336.348 18.822 336.822 18.2936 337.134 17.608C337.446 16.9223 337.602 16.1061 337.602 15.1591C337.602 14.2197 337.448 13.411 337.14 12.733C336.831 12.0511 336.371 11.5284 335.758 11.1648C335.146 10.7973 334.383 10.6136 333.469 10.6136H331.209V19.75Z" fill="#606060"/>
<path d="M167.167 51V39.3636H171.117C172.034 39.3636 172.783 39.5284 173.366 39.858C173.952 40.1837 174.385 40.625 174.667 41.1818C174.949 41.7386 175.089 42.3598 175.089 43.0455C175.089 43.7311 174.949 44.3542 174.667 44.9148C174.389 45.4754 173.959 45.9223 173.377 46.2557C172.795 46.5852 172.049 46.75 171.14 46.75H168.309V45.5H171.094C171.722 45.5 172.226 45.392 172.606 45.1761C172.987 44.9602 173.263 44.6686 173.434 44.3011C173.609 43.9299 173.697 43.5114 173.697 43.0455C173.697 42.5795 173.609 42.1629 173.434 41.7955C173.263 41.428 172.985 41.1401 172.601 40.9318C172.216 40.7197 171.707 40.6136 171.071 40.6136H168.583V51H167.167Z" fill="#606060"/>
<path d="M181.87 51V39.3636H185.82C186.733 39.3636 187.482 39.5189 188.068 39.8295C188.654 40.1364 189.088 40.5587 189.37 41.0966C189.651 41.6345 189.792 42.2462 189.792 42.9318C189.792 43.6174 189.651 44.2254 189.37 44.7557C189.088 45.286 188.656 45.7026 188.074 46.0057C187.492 46.3049 186.748 46.4545 185.842 46.4545H182.646V45.1818H185.797C186.421 45.1818 186.923 45.0909 187.304 44.9091C187.688 44.7273 187.966 44.4697 188.137 44.1364C188.312 43.7992 188.4 43.3977 188.4 42.9318C188.4 42.4659 188.312 42.0587 188.137 41.7102C187.962 41.3617 187.682 41.0928 187.298 40.9034C186.914 40.7102 186.406 40.6136 185.774 40.6136H183.285V51H181.87ZM187.372 45.7727L190.249 51H188.605L185.774 45.7727H187.372Z" fill="#606060"/>
<path d="M196.651 51V39.3636H203.706V40.6136H198.067V44.5455H203.341V45.7955H198.067V49.75H203.797V51H196.651Z" fill="#606060"/>
<path d="M210.758 39.3636H212.447L216.42 49.0227H216.557L220.529 39.3636H222.219V51H220.895V42.1591H220.781L217.128 51H215.849L212.196 42.1591H212.082V51H210.758V39.3636Z" fill="#606060"/>
<path d="M230.973 39.3636V51H229.557V39.3636H230.973Z" fill="#606060"/>
<path d="M245.983 39.3636H247.398V47.0682C247.398 47.8636 247.21 48.5739 246.833 49.1989C246.46 49.8201 245.933 50.3106 245.252 50.6705C244.571 51.0265 243.772 51.2045 242.855 51.2045C241.938 51.2045 241.139 51.0265 240.458 50.6705C239.776 50.3106 239.248 49.8201 238.871 49.1989C238.498 48.5739 238.311 47.8636 238.311 47.0682V39.3636H239.727V46.9545C239.727 47.5227 239.853 48.0284 240.104 48.4716C240.355 48.911 240.713 49.2576 241.177 49.5114C241.645 49.7614 242.204 49.8864 242.855 49.8864C243.505 49.8864 244.065 49.7614 244.533 49.5114C245.001 49.2576 245.359 48.911 245.606 48.4716C245.857 48.0284 245.983 47.5227 245.983 46.9545V39.3636Z" fill="#606060"/>
<path d="M254.725 39.3636H256.415L260.387 49.0227H260.524L264.497 39.3636H266.186V51H264.862V42.1591H264.748L261.095 51H259.817L256.164 42.1591H256.049V51H254.725V39.3636Z" fill="#606060"/>
<path d="M286.153 51H282.546V39.3636H286.313C287.447 39.3636 288.417 39.5966 289.224 40.0625C290.03 40.5246 290.649 41.1894 291.079 42.0568C291.509 42.9205 291.724 43.9545 291.724 45.1591C291.724 46.3712 291.507 47.4148 291.073 48.2898C290.639 49.161 290.008 49.8314 289.178 50.3011C288.349 50.767 287.34 51 286.153 51ZM283.961 49.75H286.062C287.028 49.75 287.829 49.5644 288.465 49.1932C289.1 48.822 289.574 48.2936 289.886 47.608C290.198 46.9223 290.354 46.1061 290.354 45.1591C290.354 44.2197 290.2 43.411 289.892 42.733C289.583 42.0511 289.123 41.5284 288.51 41.1648C287.898 40.7973 287.135 40.6136 286.222 40.6136H283.961V49.75Z" fill="#606060"/>
<path d="M298.599 51V39.3636H305.653V40.6136H300.014V44.5455H305.288V45.7955H300.014V49.75H305.745V51H298.599Z" fill="#606060"/>
<path d="M322.111 43H320.696C320.612 42.5947 320.466 42.2386 320.256 41.9318C320.051 41.625 319.8 41.3674 319.503 41.1591C319.21 40.947 318.885 40.7879 318.527 40.6818C318.169 40.5758 317.796 40.5227 317.408 40.5227C316.7 40.5227 316.059 40.7008 315.485 41.0568C314.914 41.4129 314.459 41.9375 314.121 42.6307C313.786 43.3239 313.618 44.1742 313.618 45.1818C313.618 46.1894 313.786 47.0398 314.121 47.733C314.459 48.4261 314.914 48.9508 315.485 49.3068C316.059 49.6629 316.7 49.8409 317.408 49.8409C317.796 49.8409 318.169 49.7879 318.527 49.6818C318.885 49.5758 319.21 49.4186 319.503 49.2102C319.8 48.9981 320.051 48.7386 320.256 48.4318C320.466 48.1212 320.612 47.7652 320.696 47.3636H322.111C322.005 47.9583 321.811 48.4905 321.529 48.9602C321.248 49.4299 320.897 49.8295 320.479 50.1591C320.06 50.4848 319.59 50.733 319.069 50.9034C318.552 51.0739 317.998 51.1591 317.408 51.1591C316.411 51.1591 315.525 50.9167 314.748 50.4318C313.972 49.947 313.361 49.2576 312.916 48.3636C312.471 47.4697 312.248 46.4091 312.248 45.1818C312.248 43.9545 312.471 42.8939 312.916 42C313.361 41.1061 313.972 40.4167 314.748 39.9318C315.525 39.447 316.411 39.2045 317.408 39.2045C317.998 39.2045 318.552 39.2898 319.069 39.4602C319.59 39.6307 320.06 39.8807 320.479 40.2102C320.897 40.536 321.248 40.9337 321.529 41.4034C321.811 41.8693 322.005 42.4015 322.111 43Z" fill="#606060"/>
<path d="M338.762 45.1818C338.762 46.4091 338.539 47.4697 338.094 48.3636C337.649 49.2576 337.038 49.947 336.262 50.4318C335.486 50.9167 334.599 51.1591 333.602 51.1591C332.605 51.1591 331.719 50.9167 330.942 50.4318C330.166 49.947 329.555 49.2576 329.11 48.3636C328.665 47.4697 328.442 46.4091 328.442 45.1818C328.442 43.9545 328.665 42.8939 329.11 42C329.555 41.1061 330.166 40.4167 330.942 39.9318C331.719 39.447 332.605 39.2045 333.602 39.2045C334.599 39.2045 335.486 39.447 336.262 39.9318C337.038 40.4167 337.649 41.1061 338.094 42C338.539 42.8939 338.762 43.9545 338.762 45.1818ZM337.392 45.1818C337.392 44.1742 337.223 43.3239 336.884 42.6307C336.549 41.9375 336.095 41.4129 335.52 41.0568C334.949 40.7008 334.31 40.5227 333.602 40.5227C332.894 40.5227 332.253 40.7008 331.679 41.0568C331.108 41.4129 330.653 41.9375 330.315 42.6307C329.98 43.3239 329.812 44.1742 329.812 45.1818C329.812 46.1894 329.98 47.0398 330.315 47.733C330.653 48.4261 331.108 48.9508 331.679 49.3068C332.253 49.6629 332.894 49.8409 333.602 49.8409C334.31 49.8409 334.949 49.6629 335.52 49.3068C336.095 48.9508 336.549 48.4261 336.884 47.733C337.223 47.0398 337.392 46.1894 337.392 45.1818Z" fill="#606060"/>
<path d="M345.642 51V39.3636H349.592C350.505 39.3636 351.255 39.5189 351.841 39.8295C352.427 40.1364 352.861 40.5587 353.142 41.0966C353.424 41.6345 353.565 42.2462 353.565 42.9318C353.565 43.6174 353.424 44.2254 353.142 44.7557C352.861 45.286 352.429 45.7026 351.847 46.0057C351.265 46.3049 350.521 46.4545 349.615 46.4545H346.419V45.1818H349.569C350.193 45.1818 350.696 45.0909 351.076 44.9091C351.461 44.7273 351.738 44.4697 351.91 44.1364C352.085 43.7992 352.172 43.3977 352.172 42.9318C352.172 42.4659 352.085 42.0587 351.91 41.7102C351.734 41.3617 351.455 41.0928 351.071 40.9034C350.686 40.7102 350.178 40.6136 349.547 40.6136H347.058V51H345.642ZM351.145 45.7727L354.021 51H352.378L349.547 45.7727H351.145Z" fill="#606060"/>
<path d="M360.903 51H359.419L363.711 39.3636H365.173L369.465 51H367.981L364.488 41.2045H364.396L360.903 51ZM361.451 46.4545H367.433V47.7045H361.451V46.4545Z" fill="#606060"/>
<path d="M373.781 40.6136V39.3636H382.548V40.6136H378.872V51H377.457V40.6136H373.781Z" fill="#606060"/>
<path d="M390.649 39.3636V51H389.233V39.3636H390.649Z" fill="#606060"/>
<path d="M407.85 45.1818C407.85 46.4091 407.628 47.4697 407.182 48.3636C406.737 49.2576 406.126 49.947 405.35 50.4318C404.574 50.9167 403.687 51.1591 402.69 51.1591C401.694 51.1591 400.807 50.9167 400.031 50.4318C399.254 49.947 398.644 49.2576 398.198 48.3636C397.753 47.4697 397.531 46.4091 397.531 45.1818C397.531 43.9545 397.753 42.8939 398.198 42C398.644 41.1061 399.254 40.4167 400.031 39.9318C400.807 39.447 401.694 39.2045 402.69 39.2045C403.687 39.2045 404.574 39.447 405.35 39.9318C406.126 40.4167 406.737 41.1061 407.182 42C407.628 42.8939 407.85 43.9545 407.85 45.1818ZM406.48 45.1818C406.48 44.1742 406.311 43.3239 405.972 42.6307C405.638 41.9375 405.183 41.4129 404.608 41.0568C404.037 40.7008 403.398 40.5227 402.69 40.5227C401.983 40.5227 401.342 40.7008 400.767 41.0568C400.196 41.4129 399.741 41.9375 399.403 42.6307C399.068 43.3239 398.901 44.1742 398.901 45.1818C398.901 46.1894 399.068 47.0398 399.403 47.733C399.741 48.4261 400.196 48.9508 400.767 49.3068C401.342 49.6629 401.983 49.8409 402.69 49.8409C403.398 49.8409 404.037 49.6629 404.608 49.3068C405.183 48.9508 405.638 48.4261 405.972 47.733C406.311 47.0398 406.48 46.1894 406.48 45.1818Z" fill="#606060"/>
<path d="M424 39.3636V51H422.63L416.26 41.8636H416.146V51H414.731V39.3636H416.101L422.493 48.5227H422.607V39.3636H424Z" fill="#606060"/>
</svg>
